<mxfile host="Electron" agent="Mozilla/5.0 (Macintosh; Intel Mac OS X 10_15_7) AppleWebKit/537.36 (KHTML, like Gecko) draw.io/28.1.2 Chrome/138.0.7204.243 Electron/37.4.0 Safari/537.36" version="28.1.2">
  <diagram name="Page-1" id="4eQdZRx4Z-EN1HFu4DYl">
    <mxGraphModel dx="901" dy="641" grid="1" gridSize="10" guides="1" tooltips="1" connect="1" arrows="1" fold="1" page="1" pageScale="1" pageWidth="850" pageHeight="1100" math="0" shadow="0">
      <root>
        <mxCell id="0" />
        <mxCell id="1" parent="0" />
        <mxCell id="vA1xt6gXyFNeBy6UNhEa-1" value="" style="rounded=0;whiteSpace=wrap;html=1;fillColor=#fff2cc;strokeColor=#d6b656;shadow=0;sketch=1;curveFitting=1;jiggle=2;" vertex="1" parent="1">
          <mxGeometry x="330" y="400" width="220" height="360" as="geometry" />
        </mxCell>
        <mxCell id="vA1xt6gXyFNeBy6UNhEa-2" value="&lt;font style=&quot;font-size: 18px;&quot;&gt;组件1&lt;/font&gt;" style="rounded=0;whiteSpace=wrap;html=1;fillColor=#d5e8d4;strokeColor=#82b366;shadow=0;sketch=1;curveFitting=1;jiggle=2;" vertex="1" parent="1">
          <mxGeometry x="330" y="580" width="100" height="60" as="geometry" />
        </mxCell>
        <mxCell id="vA1xt6gXyFNeBy6UNhEa-3" value="&lt;font style=&quot;font-size: 18px;&quot;&gt;组件2&lt;/font&gt;" style="rounded=0;whiteSpace=wrap;html=1;fillColor=#d5e8d4;strokeColor=#82b366;shadow=0;sketch=1;curveFitting=1;jiggle=2;" vertex="1" parent="1">
          <mxGeometry x="330" y="640" width="100" height="60" as="geometry" />
        </mxCell>
        <mxCell id="vA1xt6gXyFNeBy6UNhEa-4" value="&lt;font style=&quot;font-size: 18px;&quot;&gt;组件3&lt;/font&gt;" style="rounded=0;whiteSpace=wrap;html=1;fillColor=#d5e8d4;strokeColor=#82b366;shadow=0;sketch=1;curveFitting=1;jiggle=2;" vertex="1" parent="1">
          <mxGeometry x="330" y="700" width="100" height="60" as="geometry" />
        </mxCell>
        <mxCell id="vA1xt6gXyFNeBy6UNhEa-5" value="orientation=vertical&lt;div&gt;gravity=bottom | left&lt;/div&gt;" style="text;html=1;align=center;verticalAlign=middle;whiteSpace=wrap;rounded=0;fontSize=20;fillColor=#ffe6cc;strokeColor=#d79b00;sketch=1;curveFitting=1;jiggle=2;" vertex="1" parent="1">
          <mxGeometry x="330" y="200" width="220" height="70" as="geometry" />
        </mxCell>
        <mxCell id="vA1xt6gXyFNeBy6UNhEa-6" value="" style="rounded=0;whiteSpace=wrap;html=1;fillColor=#fff2cc;strokeColor=#d6b656;shadow=0;sketch=1;curveFitting=1;jiggle=2;" vertex="1" parent="1">
          <mxGeometry x="840" y="400" width="220" height="360" as="geometry" />
        </mxCell>
        <mxCell id="vA1xt6gXyFNeBy6UNhEa-7" value="&lt;font style=&quot;font-size: 18px;&quot;&gt;组件1&lt;/font&gt;" style="rounded=0;whiteSpace=wrap;html=1;fillColor=#d5e8d4;strokeColor=#82b366;shadow=0;sketch=1;curveFitting=1;jiggle=2;" vertex="1" parent="1">
          <mxGeometry x="960" y="580" width="100" height="60" as="geometry" />
        </mxCell>
        <mxCell id="vA1xt6gXyFNeBy6UNhEa-8" value="&lt;font style=&quot;font-size: 18px;&quot;&gt;组件2&lt;/font&gt;" style="rounded=0;whiteSpace=wrap;html=1;fillColor=#d5e8d4;strokeColor=#82b366;shadow=0;sketch=1;curveFitting=1;jiggle=2;" vertex="1" parent="1">
          <mxGeometry x="960" y="640" width="100" height="60" as="geometry" />
        </mxCell>
        <mxCell id="vA1xt6gXyFNeBy6UNhEa-9" value="&lt;font style=&quot;font-size: 18px;&quot;&gt;组件3&lt;/font&gt;" style="rounded=0;whiteSpace=wrap;html=1;fillColor=#d5e8d4;strokeColor=#82b366;shadow=0;sketch=1;curveFitting=1;jiggle=2;" vertex="1" parent="1">
          <mxGeometry x="960" y="700" width="100" height="60" as="geometry" />
        </mxCell>
        <mxCell id="vA1xt6gXyFNeBy6UNhEa-10" value="&lt;font style=&quot;font-size: 16px;&quot;&gt;方向=垂直&lt;/font&gt;&lt;div&gt;&lt;font style=&quot;font-size: 16px;&quot;&gt;垂直排列 = 下对齐&lt;/font&gt;&lt;div&gt;&lt;font style=&quot;font-size: 16px;&quot;&gt;水平排列 = 左对齐&lt;/font&gt;&lt;/div&gt;&lt;/div&gt;" style="text;html=1;align=center;verticalAlign=middle;whiteSpace=wrap;rounded=0;fillColor=#dae8fc;strokeColor=#6c8ebf;fontColor=#333333;sketch=1;curveFitting=1;jiggle=2;" vertex="1" parent="1">
          <mxGeometry x="330" y="290" width="220" height="90" as="geometry" />
        </mxCell>
        <mxCell id="vA1xt6gXyFNeBy6UNhEa-11" value="orientation=vertical&lt;div&gt;gravity=bottom | right&lt;/div&gt;" style="text;html=1;align=center;verticalAlign=middle;whiteSpace=wrap;rounded=0;fontSize=20;fillColor=#ffe6cc;strokeColor=#d79b00;sketch=1;curveFitting=1;jiggle=2;" vertex="1" parent="1">
          <mxGeometry x="840" y="200" width="220" height="70" as="geometry" />
        </mxCell>
        <mxCell id="vA1xt6gXyFNeBy6UNhEa-12" value="&lt;font style=&quot;font-size: 16px;&quot;&gt;方向=垂直&lt;/font&gt;&lt;div&gt;&lt;font style=&quot;font-size: 16px;&quot;&gt;垂直排列 =&amp;nbsp;&lt;/font&gt;&lt;span style=&quot;font-size: 16px;&quot;&gt;下对齐&lt;/span&gt;&lt;div&gt;&lt;font style=&quot;font-size: 16px;&quot;&gt;水平排列 = 右对齐&lt;/font&gt;&lt;/div&gt;&lt;/div&gt;" style="text;html=1;align=center;verticalAlign=middle;whiteSpace=wrap;rounded=0;fillColor=#dae8fc;strokeColor=#6c8ebf;fontColor=#333333;sketch=1;curveFitting=1;jiggle=2;" vertex="1" parent="1">
          <mxGeometry x="840" y="290" width="220" height="90" as="geometry" />
        </mxCell>
        <mxCell id="vA1xt6gXyFNeBy6UNhEa-13" value="" style="rounded=0;whiteSpace=wrap;html=1;fillColor=#fff2cc;strokeColor=#d6b656;shadow=0;sketch=1;curveFitting=1;jiggle=2;" vertex="1" parent="1">
          <mxGeometry x="590" y="400" width="220" height="360" as="geometry" />
        </mxCell>
        <mxCell id="vA1xt6gXyFNeBy6UNhEa-14" value="&lt;font style=&quot;font-size: 18px;&quot;&gt;组件1&lt;/font&gt;" style="rounded=0;whiteSpace=wrap;html=1;fillColor=#d5e8d4;strokeColor=#82b366;shadow=0;sketch=1;curveFitting=1;jiggle=2;" vertex="1" parent="1">
          <mxGeometry x="650" y="580" width="100" height="60" as="geometry" />
        </mxCell>
        <mxCell id="vA1xt6gXyFNeBy6UNhEa-15" value="&lt;font style=&quot;font-size: 18px;&quot;&gt;组件2&lt;/font&gt;" style="rounded=0;whiteSpace=wrap;html=1;fillColor=#d5e8d4;strokeColor=#82b366;shadow=0;sketch=1;curveFitting=1;jiggle=2;" vertex="1" parent="1">
          <mxGeometry x="650" y="640" width="100" height="60" as="geometry" />
        </mxCell>
        <mxCell id="vA1xt6gXyFNeBy6UNhEa-16" value="&lt;font style=&quot;font-size: 18px;&quot;&gt;组件3&lt;/font&gt;" style="rounded=0;whiteSpace=wrap;html=1;fillColor=#d5e8d4;strokeColor=#82b366;shadow=0;sketch=1;curveFitting=1;jiggle=2;" vertex="1" parent="1">
          <mxGeometry x="650" y="700" width="100" height="60" as="geometry" />
        </mxCell>
        <mxCell id="vA1xt6gXyFNeBy6UNhEa-17" value="orientation=vertical&lt;div&gt;gravity=bottom | center_horizontal&lt;/div&gt;" style="text;html=1;align=center;verticalAlign=middle;whiteSpace=wrap;rounded=0;fontSize=20;fillColor=#ffe6cc;strokeColor=#d79b00;sketch=1;curveFitting=1;jiggle=2;" vertex="1" parent="1">
          <mxGeometry x="590" y="200" width="220" height="70" as="geometry" />
        </mxCell>
        <mxCell id="vA1xt6gXyFNeBy6UNhEa-18" value="&lt;font style=&quot;font-size: 16px;&quot;&gt;方向=垂直&lt;/font&gt;&lt;div&gt;&lt;font style=&quot;font-size: 16px;&quot;&gt;垂直排列 =&amp;nbsp;&lt;/font&gt;&lt;span style=&quot;font-size: 16px;&quot;&gt;下对齐&lt;/span&gt;&lt;div&gt;&lt;font style=&quot;font-size: 16px;&quot;&gt;水平排列 = 水平居中&lt;/font&gt;&lt;/div&gt;&lt;/div&gt;" style="text;html=1;align=center;verticalAlign=middle;whiteSpace=wrap;rounded=0;fillColor=#dae8fc;strokeColor=#6c8ebf;fontColor=#333333;sketch=1;curveFitting=1;jiggle=2;" vertex="1" parent="1">
          <mxGeometry x="590" y="290" width="220" height="90" as="geometry" />
        </mxCell>
      </root>
    </mxGraphModel>
  </diagram>
</mxfile>
